<svg xmlns="http://www.w3.org/2000/svg" viewBox="0 0 200 100">
  <!-- Samsung -->
  <g fill="currentColor">
    <!-- S -->
    <path d="M20 30C20 25 24 22 30 22C35 22 39 25 39 30C39 33 37 36 33 37L34 42C41 40 45 35 45 28C45 20 39 15 30 15C21 15 15 20 15 29L20 30M20 50C20 45 24 42 30 42C35 42 39 45 39 50C39 53 37 56 33 57L34 62C41 60 45 55 45 48C45 40 39 35 30 35C21 35 15 40 15 49L20 50M33 72C37 73 39 76 39 80C39 87 33 92 24 92C15 92 10 87 10 80L15 80C15 85 19 88 24 88C29 88 34 85 34 80C34 77 31 74 28 73L27 68C20 70 16 75 16 82L11 81C11 72 17 67 27 67L28 72"/>
    <!-- A -->
    <path d="M60 20L75 70H70L67 60H57L54 70H49L64 20H60M60 35L58 45H66L64 35"/>
    <!-- M -->
    <path d="M90 70V20H95V50L105 20H110V70H105V40L95 70"/>
    <!-- S -->
    <path d="M135 20C144 20 150 25 150 32C150 37 146 40 140 41L141 46C149 44 154 39 154 32C154 22 148 15 135 15C122 15 116 22 116 32L121 32C121 25 126 20 135 20M116 48C116 43 120 40 126 40C132 40 136 43 136 48C136 51 134 54 130 55L131 60C139 58 145 53 145 46L150 46C150 56 144 61 131 61C118 61 112 56 112 47L117 47"/>
    <!-- U -->
    <path d="M165 20V50C165 62 172 70 182 70C192 70 199 62 199 50V20H194V50C194 59 190 65 182 65C174 65 170 59 170 50V20"/>
  </g>
</svg>